<?xml version="1.0" encoding="iso-8859-1"?>
<!-- Generator: Adobe Illustrator 19.0.0, SVG Export Plug-In . SVG Version: 6.00 Build 0)  -->
<svg version="1.1" id="Layer_1" xmlns="http://www.w3.org/2000/svg" xmlns:xlink="http://www.w3.org/1999/xlink" x="0px" y="0px"
	 viewBox="0 0 511.999 511.999" style="enable-background:new 0 0 511.999 511.999;" xml:space="preserve">
<g>
	<g>
		<path d="M289.131,241.124c22.031-11.851,37.046-35.124,37.046-61.843c0-38.694-31.481-70.175-70.175-70.175
			c-38.695,0-70.175,31.48-70.175,70.175c0,26.719,15.014,49.993,37.046,61.843c-22.031,11.851-37.046,35.124-37.046,61.843
			c0,4.602,3.731,8.332,8.332,8.332c4.601,0,8.332-3.731,8.332-8.332c0-29.507,24.004-53.511,53.511-53.511
			s53.511,24.004,53.511,53.511c0,4.602,3.729,8.332,8.332,8.332c4.603,0,8.332-3.731,8.332-8.332
			C326.177,276.248,311.162,252.975,289.131,241.124z M202.491,179.281c0-29.507,24.004-53.511,53.511-53.511
			s53.511,24.004,53.511,53.511s-24.005,53.511-53.511,53.511C226.495,232.792,202.491,208.788,202.491,179.281z"/>
	</g>
</g>
<g>
	<g>
		<path d="M143.604,252.887c16.991-10.227,28.384-28.847,28.384-50.082c0-32.209-26.204-58.413-58.414-58.413
			c-32.21,0-58.414,26.204-58.414,58.413c0,21.235,11.393,39.855,28.384,50.082c-16.991,10.226-28.384,28.846-28.384,50.082
			c0,4.602,3.731,8.332,8.332,8.332s8.332-3.731,8.332-8.332c0-23.021,18.728-41.75,41.749-41.75s41.75,18.728,41.75,41.75
			c0,4.602,3.731,8.332,8.332,8.332c4.601,0,8.332-3.731,8.332-8.332C171.987,281.734,160.594,263.113,143.604,252.887z
			 M113.575,244.555c-23.021,0-41.75-18.729-41.75-41.749c0-23.02,18.728-41.748,41.749-41.748c23.021,0,41.75,18.728,41.75,41.748
			C155.324,225.827,136.596,244.555,113.575,244.555z"/>
	</g>
</g>
<g>
	<g>
		<path d="M428.458,252.886c16.991-10.226,28.384-28.846,28.384-50.082c0-32.209-26.204-58.413-58.413-58.413
			c-32.21,0-58.414,26.204-58.414,58.413c0,21.235,11.393,39.855,28.384,50.082c-16.991,10.226-28.384,28.846-28.384,50.082
			c0,4.602,3.729,8.332,8.332,8.332c4.603,0,8.332-3.731,8.332-8.332c0-23.021,18.728-41.749,41.75-41.749
			c23.02,0,41.748,18.728,41.748,41.749c0,4.602,3.729,8.332,8.332,8.332c4.603,0,8.332-3.731,8.332-8.332
			C456.841,281.733,445.449,263.112,428.458,252.886z M398.429,244.555c-23.021-0.001-41.749-18.729-41.749-41.749
			c0-23.02,18.728-41.748,41.749-41.748c23.02,0,41.748,18.728,41.748,41.748C440.177,225.827,421.449,244.555,398.429,244.555z"/>
	</g>
</g>
<g>
	<g>
		<path d="M471.246,24.766H40.754C18.283,24.766,0,43.049,0,65.52v59.227c0,4.602,3.731,8.332,8.332,8.332
			c4.601,0,8.332-3.731,8.332-8.332V65.52c0-13.284,10.807-24.09,24.09-24.09h430.492c13.284,0,24.09,10.807,24.09,24.09v284.411
			h-52.21c-4.602,0-8.332,3.731-8.332,8.332s3.731,8.332,8.332,8.332h52.21v15.273c0,13.284-10.807,24.09-24.09,24.09h-155.41
			H196.164H40.754c-13.284,0-24.09-10.807-24.09-24.09v-15.273h398.688c4.602,0,8.332-3.731,8.332-8.332s-3.731-8.332-8.332-8.332
			H16.664V152.522c0-4.602-3.731-8.332-8.332-8.332c-4.601,0-8.332,3.73-8.332,8.332V381.87c0,22.472,18.283,40.754,40.754,40.754
			H183.54l-20.494,47.945h-40.034c-4.602,0-8.332,3.731-8.332,8.332s3.731,8.332,8.332,8.332h265.975
			c4.602,0,8.332-3.731,8.332-8.332s-3.731-8.332-8.332-8.332h-40.034l-20.494-47.945h142.786c22.472,0,40.754-18.282,40.754-40.754
			V65.52C512,43.049,493.717,24.766,471.246,24.766z M330.83,470.568H181.17l14.238-33.31h121.185L330.83,470.568z"/>
	</g>
</g>
<g>
	<g>
		<path d="M262.924,379.679c-1.914-2.906-5.583-4.299-8.952-3.457c-3.517,0.879-6.116,4.048-6.291,7.67
			c-0.364,7.534,9.106,11.629,14.33,6.172C264.674,387.282,265.089,382.887,262.924,379.679z"/>
	</g>
</g>
<g>
</g>
<g>
</g>
<g>
</g>
<g>
</g>
<g>
</g>
<g>
</g>
<g>
</g>
<g>
</g>
<g>
</g>
<g>
</g>
<g>
</g>
<g>
</g>
<g>
</g>
<g>
</g>
<g>
</g>
</svg>
